<svg xmlns="http://www.w3.org/2000/svg" class="logo" viewBox="0 0 182 105">
  <path fill="#222" fill-rule="evenodd" d="M14 67H0V2h15l.938 3.576C20.788 2.034 26.45 0 32.5 0c10.631 0 20.07 6.283 26 15.996C64.43 6.283 73.869 0 84.5 0c15.158 0 34.444 10.254 34.5 35 0 .358-.022.656-.064.908L119 36l-.056 31c0 13.209 10.708 23.917 23.917 23.917 13.209 0 23.917-10.708 23.917-23.917 0-13.209-10.708-23.917-23.917-23.917-3.226 0-6.303.64-9.111 1.797V30.292A41.074 41.074 0 0 1 144 29c22.644 0 38 15.356 38 38s-15.356 38-38 38c-19.537 0-34.254-8.9-39-28.96-.35-1.937-.684-15.95-1-42.04 0-10.493-8.507-19-19-19s-19 8.507-19 19v33H52V34c0-10.493-8.507-19-19-19s-19 8.507-19 19v33z"/>
</svg>