<?xml version="1.0" standalone="no"?>
<!DOCTYPE svg PUBLIC "-//W3C//DTD SVG 20010904//EN"
 "http://www.w3.org/TR/2001/REC-SVG-20010904/DTD/svg10.dtd">
<svg version="1.0" xmlns="http://www.w3.org/2000/svg"
 width="1024.000000pt" height="1024.000000pt" viewBox="0 0 1024.000000 1024.000000"
 preserveAspectRatio="xMidYMid meet">
<metadata>
Created by potrace 1.11, written by Peter Selinger 2001-2013
</metadata>
<g transform="translate(0.000000,1024.000000) scale(0.100000,-0.100000)"
fill="#000000" stroke="none">
<path d="M1645 8063 c-215 -27 -475 -122 -659 -243 -43 -28 -82 -48 -86 -43
-4 4 -18 47 -30 96 l-23 87 -424 0 -423 0 0 -1830 0 -1830 395 0 394 0 3 1008
3 1007 28 100 c104 383 395 676 766 772 120 31 302 41 422 24 440 -64 805
-413 890 -854 18 -92 19 -155 19 -1077 l0 -980 400 0 400 0 0 979 c0 815 2
992 15 1062 57 326 267 610 563 762 173 89 335 123 536 114 395 -18 731 -241
906 -601 57 -117 86 -215 99 -341 5 -49 12 -322 16 -605 14 -1263 33 -1813 66
-1942 116 -457 351 -842 673 -1102 123 -100 212 -156 369 -231 304 -148 624
-219 1032 -232 585 -17 1064 120 1463 421 100 76 257 228 335 326 171 213 307
496 377 782 57 233 65 309 65 613 0 247 -3 295 -23 408 -62 344 -162 603 -331
853 -269 400 -666 674 -1156 799 -224 57 -339 70 -620 69 -253 0 -330 -8 -517
-50 l-68 -16 0 -415 c0 -328 3 -414 13 -409 35 14 210 66 262 78 95 20 401 17
505 -5 269 -58 494 -180 686 -372 195 -196 310 -413 371 -696 25 -117 25 -381
0 -499 -59 -277 -179 -502 -372 -695 -248 -249 -544 -378 -895 -391 -237 -9
-430 30 -635 130 -146 72 -263 157 -377 274 -150 154 -253 326 -317 524 -61
193 -61 183 -61 1293 0 1029 -3 1132 -40 1340 -145 821 -777 1409 -1646 1531
-174 24 -439 15 -587 -20 -304 -71 -558 -212 -794 -440 -126 -121 -193 -200
-281 -329 l-60 -88 -50 73 c-200 296 -438 510 -727 653 -244 121 -440 166
-701 164 -77 -1 -152 -4 -169 -6z"/>
</g>
</svg>
